<?xml version="1.0" encoding="UTF-8"?>
<svg id="_レイヤー_2" data-name="レイヤー 2" xmlns="http://www.w3.org/2000/svg" width="608.47" height="87.08" viewBox="0 0 608.47 87.08">
  <g id="_レイヤー_1-2" data-name="レイヤー 1">
    <path d="M20.9,75.89c-2.68,0-5.86-1.41-6.78-4.11-.64-1.87-.23-3.8,1.11-5.28.44-.49,1.02-.83,1.82-1.06.39-.11.78-.17,1.17-.17.96,0,1.87.36,2.57,1.01,1.41,1.31,1.89,3.35,1.13,4.85-.32.63-.88,1.14-1.76,1.6l-2.69,1.39,2.9.88c.35.11.71.16,1.1.16.47,0,.9-.08,1.29-.15,1.98-.39,3.72-1.51,4.89-3.14,1.06-1.48,1.44-3.23,1.1-5.08-.26-1.43-.74-2.83-1.5-4.39l-1.69-3.02-1.95-3.3-1.02.49c-1.55.75-3.17,1.27-4.81,1.54-.8.13-1.62.2-2.43.2-3.76,0-7.37-1.41-10.18-3.98-2.3-2.11-3.93-4.9-4.71-8.08-1.01-4.12-.42-8.1,1.91-12.91.66-1.36,1.42-2.7,2.15-3.99.86-1.52,1.74-3.08,2.5-4.72l.28-.6-.34-.56C3.68,18.05,1.42,9.43,3.47,3.45c.39-1.14.95-2.12,1.71-2.99.27-.31.58-.45.98-.45.65,0,1.51.37,2.36,1.01,2.55,1.92,4.69,6.09,5.49,9.21l.39,1.53c.93,3.64.61,7.98-.88,12.22-.31.88-.7,1.71-1.22,2.6-.41.7-.8,1.4-1.17,2.2l-.26.56,1.67,3.03c.59,1.07,1.07,2.17,1.54,3.23l.45,1.02,1.06-.35c1.31-.43,2.61-.65,3.85-.65,4.56,0,8.18,3,9.45,7.83.46,1.75.54,3.22.25,4.61-.54,2.74-2.36,4.93-4.08,6.71l-.64.67,2.88,4.94c.78,1.34,1.39,2.67,1.88,4.08.92,2.8.76,5.44-.43,7.23-.71,1.07-1.65,1.96-2.79,2.65-1.43.86-2.9,1.37-4.37,1.51-.23.02-.47.03-.71.03ZM7.04,35.25l-.78,1.3c-.86,1.44-1.52,2.87-2.01,4.36-.98,2.92-1.03,5.96-.15,8.79,1.37,4.41,5.03,7.33,9.78,7.8.43.04.85.06,1.27.06,2.35,0,4.65-.56,7.04-1.72l1.14-.55-3.24-6.29-4.09-8.11-1.19.97c-2.36,1.93-3.25,4.64-2.38,7.24.38,1.14,1.1,2.01,2.13,2.59.72.4,1.46.7,2.2.87l.15.04c.3.07.53.12.69.22-.12,0-.24,0-.35,0-3.54,0-6.62-2.55-7.5-6.2-.19-.77-.26-1.4-.24-2.02.07-2.43,1.43-4.96,3.73-6.95l.73-.63-3.58-7.06-3.34,5.28ZM19.62,40.12c-.42,0-.84.04-1.26.11l-1.63.28,3.35,6.74,4.16,7.75,1.17-1.35c.88-1.01,1.43-2.12,1.73-3.5.51-2.77-.29-5.61-2.13-7.62-1.43-1.56-3.34-2.41-5.39-2.41ZM9.06,5.33c-.59,0-1.16.21-1.74.64-2.24,1.67-2.54,4.4-2.53,7.09.06,1.79.28,3.38.69,4.91.29,1.1.69,2.39,1.39,3.63l1,1.77,1.1-1.71c1.04-1.61,1.85-3.23,2.49-4.97,1.02-2.91,1.25-5.55.69-7.85-.51-2.09-1.45-3.3-2.74-3.49-.12-.02-.24-.03-.36-.03Z" fill="#d4b26a"/>
    <g>
      <path d="M101.22,16.44c-11.65-4.09-29.94-1.84-41.74,2.78-6.5,2.69-16.45,7.67-20.31,13.61-.21.47-.45,1.41-.5,1.5-3.88,5.75.71,9.36,3.48,9.8,1.12.27,2.04-.49,1.28-1.32-1.41-1.11-5.96-2.28-3.12-6.81,9.61-15.37,46.02-20.34,59.7-16.27,8.44,2.72,6.48,9.96-1.83,15.76-10.72,7.51-27.14,12.18-39.89,13.63-1.96.3-3.28.03-3.97-.33,10.8-10.42,23.54-21.51,29.03-21.57.48,0,1.11.92,1.32-.58.45-2.25-2.97-3.15-3.93-3.14-5.01.05-15.65,8.22-17.55,11.33-.07.56-.21,1.5-2.44,3.87-1.68,1.8-5.12,5.11-8.86,8.9-.36-.46-1.35-.83-1.92-.82-3.28.03-5.33,3.05-3.96,4.26.3.18.94.46,1.86.54-5.36,5.53-21.88,22.67-21.88,22.67,0,0,2.09-1.02,4.94-2.68s7.41-6.14,8.12-6.96c2.5-2.74,7.19-7.76,12.49-13.06,0,0,.56-.38.63.09,3.36,10.27,4.23,31.24,24.21,35.15,6.87,1.33,15.62-1.66,19.09-6.1,1.72-2.08,3.32-4.53,4.12-7.54.35-1.6-1.41-1.95-1.88-.07-1.92,7.98-12.17,10.06-17.58,9.08-17.24-3.19-20.52-18.05-25.48-31.11,4.9-.24,10.99-.96,16.47-2.05,13.58-2.86,29.78-8.93,35.38-19.29,2.98-5.46,1.09-10.78-5.26-13.25Z" fill="#d4b26a"/>
      <path d="M88.5,59.38c-1.49.11-1.56-1.2-.07-1.31,3.21-.32,9.98-3.38,14.84-6.25,2.2-1.24,6.38-4.1,7.13-6.16,1.11-2.64-3.01-1.19-4.66-.51-6.85,2.6-18.7,10.5-23.96,17.39-6.02,7.93,1.35,7.95,8.74,5.43,8.42-2.9,16.91-8.05,22.74-13.26.6-.47,1.08-.48,1.19-.29.4.18.18.65-.42,1.13-6.69,6.25-15.13,11.49-23.12,14.29-11.59,3.96-22.16.23-11.44-11.68,5.82-6.43,26.38-18.92,32.54-16.64,3.35,1.28.58,6.08-2.46,8.74-5.75,5.02-16.54,8.7-21.04,9.12Z" fill="#d4b26a"/>
      <path d="M120.45,47.99c2.39-2.93,4.43-5.29,5.91-5.59,1.29-.11,2.8.16,2.86,1.09.06,1.12-1.82,2.92-4.59,5.86-5.47,5.68-10.35,10.69-12.02,13.71-2.52,4.05-1.59,6.2,2.33,4.57,3.86-1.73,13.79-7.73,20.33-13.23.78-.66,1.68-.11.81.74-3.34,3.31-12.05,9.59-18.42,13.03-4.11,2.29-12.28,4.63-11.62-1,.22-2.16,4.18-7.26,8.18-11.61-1.34,1.04-2.85,2.47-5.91,4.75-1.44,1.04-1.84-.17-.46-1.31,5.22-4.08,9.41-7.59,11.85-9.77.03-.28.2-.66.75-1.22ZM132.93,37.46c-1.73.02-4.14.04-3.24-1.93.21-.47,7.14-4.29,7.93-4.77,5.37-3.15,1.46.17.59,2.05-.47,1.03-4.32,4.64-5.29,4.65Z" fill="#d4b26a"/>
      <path d="M151.78,50.56c-7.73,4.95-21.5,17.46-23.8,18.52-1.18.48-7.32,2.79-5.54.99,1.63-1.89,14.67-18.05,18.96-23.24,1-1.13,2.63-5.55,7.04-4.29,1.37.36.89,1.21-.57,2.72-4.78,5.2-11.69,13.61-14.22,16.64,6.28-4.94,18.71-13.87,25.86-17.98,7.44-4.11,11.18-3.49,6.68,2.18-2.52,3.21-6.07,6.15-8.79,9.37-2.54,2.84-4.38,5.38-5.48,7.18-2.43,4.05-1.49,6.2,2.33,4.56,3.86-1.73,13.89-7.73,20.33-13.23.78-.66,1.78-.11.91.74-3.33,3.31-12.05,9.59-18.42,13.03-2.43,1.34-6.21,2.69-8.78,2.43-9.69-.83,5.05-15.88,9.44-20.24,3.11-3.03,3.8-5.38-5.94.62Z" fill="#d4b26a"/>
      <path d="M166.7,65.76c-3.09-8.77,25.33-23.12,33.33-24.89,3.23-.78,7.56-1.02,9.29.65.66.65.91,1.58.48,2.52-.3.66-.4.66-.79.48-.33-1.59-2.17-1.76-4-1.74-5.01.05-13.48,3.89-20.46,8.27-3.82,2.48-15.9,11.5-14.8,15.61.49,1.87,6.76-1.57,8.58-2.62,3.45-2.1,9.42-5.72,13.13-8.38,1.99-1.43,12.93-9.41,13.8-9.42.96-.01,4.38.7,2.82,2.22-5.66,4.84-10.26,10.69-12.02,13.71-2.43,4.05-1.49,6.2,2.32,4.56,3.95-1.73,13.89-7.73,20.33-13.23.78-.66,1.68-.11.81.74-3.24,3.31-12.05,9.59-18.42,13.03-4.12,2.29-12.28,4.63-11.62-1,.29-2.53,4.03-8.19,6.79-11.5-1.98.77-17.16,14.04-24.87,14.13-2.02.02-4.12-1.27-4.7-3.13Z" fill="#d4b26a"/>
      <path d="M258.09,30.7c-1.53.2-.7-1.4.83-1.6,5.85-.62,15.26-6.53,21.2-13.24,1.13-1.42,7.47-1.86,6.26-.07-1.22,1.42-3.15,5-4.11,6.69-5.39,8.86-19.79,47.51-7.17,47.38,12.43-.13,38.27-37.59,41.54-49.15.87-3.38.86-5.44,1.14-8.16.02-.47,2.12-1.71,2.65-1.81,4.14-.04,2.3,8.41,4.24,11.29.63.93,1.12,1.11,1.89,1.1.29,0,.8-.29,1.29-.29.77,0,.79.37.63.93-.47,1.04-1.97,1.8-2.98,1.91-.77,0-1.36-.17-1.77-.54-1.29-.74-2.12-1.66-2.9-2.69-6.4,16.74-34.28,50.47-47.97,50.62-15.22.16-7.19-25.4.47-42.16-8.6,10.21-16.21,18.91-25.54,28.18-10.34,10.04-20.82,18.49-29.03,20.73-3.42.97-6.02,1-7.88.46-2.12-.82-3.12-2.4-2.5-5.22.21-1.5,2.3-3.77,1.71-.39-.29,1.69.29,2.71,1.91,3.17,1.33.45,3.94.61,6.17-.07,8.22-2.24,17.67-9.93,26.95-19.11,10.41-10.6,18.92-21.46,27.86-33.27-5.26,3.33-10.81,4.98-14.89,5.31Z" fill="#d4b26a"/>
      <path d="M304.58,64.31c-3.09-8.77,25.33-23.12,33.33-24.89,3.23-.78,7.56-1.02,9.29.65.66.65.91,1.58.48,2.52-.3.66-.4.66-.79.48-.33-1.59-2.17-1.76-4-1.74-5.01.05-13.48,3.89-20.46,8.27-3.82,2.48-15.9,11.5-14.8,15.61.49,1.87,6.76-1.57,8.58-2.62,3.45-2.1,9.42-5.72,13.13-8.38,1.99-1.43,12.93-9.41,13.8-9.42.96-.01,4.38.7,2.82,2.22-5.66,4.84-10.26,10.69-12.02,13.71-2.43,4.05-1.49,6.2,2.33,4.56,3.95-1.73,13.89-7.73,20.33-13.23.78-.66,1.68-.11.81.74-3.24,3.31-12.05,9.59-18.42,13.03-4.11,2.29-12.28,4.63-11.62-1,.29-2.53,4.03-8.19,6.79-11.5-1.98.77-17.16,14.04-24.87,14.13-2.02.02-4.12-1.27-4.7-3.13Z" fill="#d4b26a"/>
      <path d="M371.34,38.88c10.09-12,28.85-31.03,40.01-28.8.73.09,1.33.45,1.78.73,4.96,3.41-9.86,14.44-13.89,17.38-9.09,6.47-19.68,12.01-26.11,14.33-5.96,6.53-12.09,14.08-14.39,17.01l9.92-8.07c.51-1.32,1.02-2.45,1.69-3.48.75-1.23,3.01-3.03,2.23-.68l-.22,1.31c3.66-2.75,11.39-8.55,15.26-10.09,5.52-2.21,7.74,1.32,2.08,3.63-3.63,1.44-12.18,4.62-17.84,8.62-1.67,9.95-1.79,14.63,1.2,22.56,1.34,3.36,3.63,5.49,6.13,5.46,4.72-.05,4.77-5.2,4.31-7.54-.4-2.06,1.31-1.61,2.13-.68.33.75.53,3.46-.2,5.06-1.86,3.86-7.59,5.7-10,5.73-9.54.1-10.86-15.06-7.49-27.46-7.23,6.17-13.17,12.04-14.86,12.8-1.18.48-7.42,2.79-5.73,1,1.05-1.04,9.94-12.09,16.73-20.03-2,1.43-4.54,3.42-8.17,6.55-.92.76-2.9.69-.32-1.4,4.16-3.23,10.13-8.54,13.22-11.1-1.96-1.38.65-3.94,1.86-3.02.25.09.4.18.68.18ZM397.62,26.89c2.18-1.62,15.32-12.34,13.57-14.38-.51-.56-2.19-.26-5.17,1.46-11.64,6.59-20.22,14.45-30.27,25.33,6.61-2.51,14.42-6.8,21.88-12.41Z" fill="#d4b26a"/>
      <path d="M381.76,63.49c-3.09-8.77,25.33-23.12,33.33-24.89,3.24-.78,7.56-1.02,9.29.65.66.65.91,1.58.48,2.52-.3.66-.4.66-.79.48-.33-1.59-2.17-1.76-4-1.74-5.01.05-13.48,3.89-20.46,8.27-3.82,2.48-15.9,11.5-14.8,15.61.49,1.87,6.76-1.57,8.58-2.62,3.45-2.1,9.42-5.72,13.13-8.38,1.99-1.43,12.93-9.41,13.8-9.42.96-.01,4.38.7,2.82,2.22-5.66,4.84-10.26,10.69-12.02,13.71-2.43,4.05-1.49,6.2,2.33,4.56,3.95-1.73,13.89-7.73,20.33-13.23.78-.66,1.68-.11.81.74-3.24,3.31-12.05,9.59-18.42,13.03-4.12,2.29-12.28,4.63-11.62-1,.29-2.53,4.03-8.19,6.79-11.5-1.98.77-17.16,14.04-24.87,14.13-2.02.02-4.12-1.27-4.7-3.14Z" fill="#d4b26a"/>
      <path d="M430.99,55.01c-1.44,1.05-.45-1.12.98-2.35,6.27-5.12,7.6-6.36,10.66-9.48,1.02-1.6,2.91-4.9,6.73-3.82,1.37.36.89,1.21-.57,2.72-4.77,5.2-11.69,13.61-14.22,16.64,6.28-4.94,18.71-13.87,25.86-17.98,8.41-4.77,12.11-3.22,4.5,4.64-1.78,1.8-5.5,5.96-7.06,7.47,4.75-3.05,12.4-7.62,17.47-9.27,1.23-.39,9.01-2.72,4.64,1.17-5.65,5.02-10.93,11.54-12.69,14.56-2.43,4.05-1.49,6.2,2.33,4.57,3.95-1.73,13.89-7.73,20.33-13.23.78-.66,1.78-.11.91.74-3.34,3.31-12.05,9.59-18.42,13.03-4.21,2.29-12.38,4.63-11.72-1,.39-2.53,4.03-8.19,6.89-11.5,1.45-1.7,3.67-4.25,5.28-5.68-6.91,2.32-15.7,8.97-19.93,11.92-2.4,2.74-7.9,3.64-4.82.05,3.99-4.54,9.56-10.22,11.16-11.83,3.11-3.03,3.15-5-6.6,1.01-7.73,4.95-21.5,17.46-23.8,18.52-1.18.48-7.32,2.79-5.54.99,1.14-1.23,8.22-10.02,13.73-16.82-2.11,1.9-4.42,3.79-6.09,4.93Z" fill="#d4b26a"/>
      <path d="M515.31,63.96c-4.21,2.29-12.28,4.63-11.62-1,.29-2.53,4.33-8.85,7.19-12.16-1.88.96-14.09,14.67-21.99,14.75-1.93.02-4.93-1.17-5.28-3.13-.62-3.46,4.72-10.54,10.56-15.75,2.29-2.08,6.3-5.59,7.29-5.88,1.85-.49,4.07-.51,5.2-.05.94.46-.16,1.41-1.05,1.88-2.98,1.91-10.17,6.95-15.46,13.28-6.74,8.03-3.39,10.15,5.76,4.81,4.85-2.86,11.49-8.36,17.38-13.48,2.85-2.47,8.88-8.52,11-10.42,1.25-.01,5.59.78,3.85,2.49-2.02,1.9-8.25,7.77-10.62,10.23-2.69,2.74-5.31,5.96-7.34,9.35-2.43,4.05-1.49,6.2,2.42,4.56,3.86-1.73,13.79-7.73,20.24-13.23.78-.66,1.78-.11.91.74-3.34,3.31-12.05,9.59-18.42,13.03Z" fill="#d4b26a"/>
      <path d="M530.06,52.47c5.36-4.18,10.37-8.63,15.02-13.37-1.36-.17-1.89-1.1-.99-2.24,2.16-2.83,7.97-6.73,11.46-8.08,3.35-1.25,5.85-2.31,1.14,2.33l-6.42,5.88c3.19.15,6.48.31,10.03.08,5.91-.34,2.13,2.88-2.96,6.68-6.57,4.94-12.55,11.09-15.08,14.12-3.48,4.25-3.24,6.87.67,5.24,3.86-1.73,13.79-7.73,20.24-13.23.78-.66,1.78-.11.91.74-3.33,3.31-12.05,9.59-18.42,13.03-2.34,1.34-6.02,2.69-8.72,2.72-2.12.02-3.56-.81-3.03-3.43,1.06-6.1,10.56-13.04,15.76-16.65,2.18-1.62,8.5-5.8,2.33-6.77-1.41-.27-2.67-.44-4.12-.42-5.66,4.84-11.17,9.77-17.14,14.42-1.52,1.23-2.95.78-.68-1.02Z" fill="#d4b26a"/>
      <path d="M555.29,61.66c-3.09-8.77,25.33-23.12,33.33-24.89,3.24-.78,7.56-1.02,9.29.65.66.65.91,1.58.48,2.52-.3.66-.4.66-.79.48-.33-1.59-2.17-1.76-4-1.74-5.01.05-13.48,3.89-20.46,8.27-3.82,2.48-15.9,11.5-14.8,15.61.49,1.87,6.76-1.57,8.58-2.62,3.45-2.1,9.42-5.72,13.13-8.38,1.99-1.43,12.93-9.41,13.8-9.42.96-.01,4.38.7,2.82,2.22-5.66,4.84-10.26,10.69-12.02,13.71-2.43,4.05-1.49,6.2,2.33,4.56,3.95-1.73,13.89-7.73,20.33-13.23.78-.66,1.68-.11.81.74-3.24,3.31-12.05,9.59-18.42,13.03-4.11,2.29-12.28,4.63-11.62-1,.29-2.53,4.03-8.19,6.79-11.5-1.98.77-17.16,14.04-24.87,14.13-2.02.02-4.12-1.27-4.71-3.13Z" fill="#d4b26a"/>
    </g>
  </g>
</svg>